# xmcd
#
# Track frame offsets: 
#        180
#        21757
#        39187
#        62111
#        78470
#        101214
#        116584
#        142253
#        156705
#        175920
#        194522
#        212874
#        230770
#
# Disc length: 3291 seconds
#
# Revision: 2
# Processed by: cddbd v1.5.2PL0 Copyright (c) Steve Scherf et al.
# Submitted via: ExactAudioCopy v0.99pb4
#
DISCID=c40cd90d
DTITLE=Moonshine Willy - Bastard Child
DYEAR=1998
DGENRE=Country
TTITLE0=Burn In Hell
TTITLE1=The Learning Song
TTITLE2=Don't Forget
TTITLE3=Turn The Lights Down Low
TTITLE4=Dig A Little Deeper
TTITLE5=Goin' Down
TTITLE6=He Doesn't Like Love
TTITLE7=Bastard Child
TTITLE8=Goin' Along For The Ride
TTITLE9=Always
TTITLE10=Nobody Wants To Die
TTITLE11=Passing Affair
TTITLE12=Don't You Want Me
EXTD=\nYEAR: 1998  ID3G:   2
EXTT0=
EXTT1=
EXTT2=
EXTT3=
EXTT4=
EXTT5=
EXTT6=
EXTT7=
EXTT8=
EXTT9=
EXTT10=
EXTT11=
EXTT12=
PLAYORDER=
